<?xml version="1.0" encoding="utf-8"?>
<!-- Generator: Adobe Illustrator 24.0.1, SVG Export Plug-In . SVG Version: 6.00 Build 0)  -->
<svg version="1.1" id="Layer_1" xmlns="http://www.w3.org/2000/svg" xmlns:xlink="http://www.w3.org/1999/xlink" x="0px" y="0px"
	 viewBox="0 0 392 392" style="enable-background:new 0 0 392 392;" xml:space="preserve">
<style type="text/css">
	.st0{fill-rule:evenodd;clip-rule:evenodd;fill:#282570;}
</style>
<path id="Shape_2_copy" class="st0" d="M196,0c108.2,0,196,87.8,196,196s-87.8,196-196,196S0,304.2,0,196S87.8,0,196,0z M97,161
	l98,53v60h-82c0,0-16-0.9-16-16V161z M195,192l-98-53v-11c0,0-0.2-10,10-10h88V192z M293,161l-98,53v60h82c0,0,16-0.9,16-16V161z
	 M195,192l98-53v-11c0,0,0.2-10-10-10h-88V192z"/>
</svg>
