<svg xmlns="http://www.w3.org/2000/svg" width="100" height="79" viewBox="0 0 100 79">
  <defs>
    <style>
      .cls-1 {
        fill: #fff;
        stroke: #28401b;
        stroke-width: 1px;
        fill-rule: evenodd;
      }
    </style>
  </defs>
  <path id="Rounded_Rectangle_1_copy_2" data-name="Rounded Rectangle 1 copy 2" class="cls-1" d="M7.143,0H92.857A7.143,7.143,0,0,1,100,7.143V7.221a7.143,7.143,0,0,1-7.143,7.143H7.143A7.143,7.143,0,0,1,0,7.221V7.143A7.143,7.143,0,0,1,7.143,0Zm0,32.318H92.857A7.143,7.143,0,0,1,100,39.461v0.078a7.143,7.143,0,0,1-7.143,7.143H7.143A7.143,7.143,0,0,1,0,39.539V39.461A7.143,7.143,0,0,1,7.143,32.318Zm0,32.318H92.857A7.143,7.143,0,0,1,100,71.779v0.078A7.143,7.143,0,0,1,92.857,79H7.143A7.143,7.143,0,0,1,0,71.857V71.779A7.143,7.143,0,0,1,7.143,64.636Z"/>
</svg>
