<?xml version="1.0" encoding="utf-8"?>
<!-- Generator: Adobe Illustrator 24.0.1, SVG Export Plug-In . SVG Version: 6.00 Build 0)  -->
<svg version="1.1" id="Capa_1" xmlns="http://www.w3.org/2000/svg" xmlns:xlink="http://www.w3.org/1999/xlink" x="0px" y="0px"
	 viewBox="0 0 512 512" style="enable-background:new 0 0 512 512;" xml:space="preserve">
<style type="text/css">
	.st0{fill:#282570;}
</style>
<path class="st0" d="M256,0C114.6,0,0,114.6,0,256s114.6,256,256,256s256-114.6,256-256S397.4,0,256,0z M176.1,383.9h-48v-192h48
	V383.9z M152.1,175.9c-13.2,0-24-10.7-24-24s10.7-24,24-24c13.2,0,24,10.7,24,24C176.1,165.2,165.3,175.9,152.1,175.9z M383.9,384.1
	l-47.8-0.2v-112c-0.7-3.8-11.7-30.7-32-32c-37.9-5-48,27.9-48,32v112h-48v-192h48v32c2.7-1.4,22.9-31.3,64-32
	c52.5,0.7,62.1,40.1,63.8,59.3V384.1z"/>
</svg>
